<?xml version="1.0" standalone="no"?>
<!DOCTYPE svg PUBLIC "-//W3C//DTD SVG 20010904//EN"
 "http://www.w3.org/TR/2001/REC-SVG-20010904/DTD/svg10.dtd">
<svg version="1.0" xmlns="http://www.w3.org/2000/svg"
 width="96.000000pt" height="96.000000pt" viewBox="0 0 96.000000 96.000000"
 preserveAspectRatio="xMidYMid meet">
<metadata>
Created by potrace 1.14, written by Peter Selinger 2001-2017
</metadata>
<g transform="translate(0.000000,96.000000) scale(0.100000,-0.100000)"
fill="#000000" stroke="none">
<path d="M440 919 c0 -6 9 -13 19 -16 11 -3 22 -15 25 -26 5 -17 8 -19 15 -9
10 17 21 -29 15 -70 -2 -18 1 -26 7 -22 8 4 8 1 1 -12 -5 -11 -8 -27 -7 -36 4
-23 -19 -30 -42 -12 -10 9 -12 13 -5 9 8 -4 12 1 12 15 0 12 -4 18 -10 15 -5
-3 -10 -1 -10 5 0 6 -4 9 -9 5 -5 -3 -8 -18 -5 -33 2 -15 1 -22 -3 -17 -5 6
-14 11 -22 13 -10 2 -12 -4 -7 -25 4 -15 3 -23 -1 -18 -13 16 -33 16 -39 0 -4
-8 -15 -15 -25 -15 -10 0 -19 -7 -19 -15 0 -8 -7 -15 -15 -15 -9 0 -18 -7 -21
-15 -4 -8 -12 -15 -19 -15 -7 0 -18 -14 -24 -30 -5 -16 -13 -30 -16 -30 -3 0
-4 4 0 9 3 5 2 12 -3 15 -7 4 -12 -22 -15 -71 -1 -16 -9 -16 -27 0 -12 10 -12
9 -1 -5 7 -9 10 -22 6 -28 -3 -5 -2 -10 4 -10 5 0 11 6 14 13 3 6 5 -1 6 -18
2 -61 5 -68 23 -73 10 -2 18 -12 18 -22 0 -14 7 -17 31 -14 38 5 51 12 43 25
-8 14 6 70 17 63 5 -3 7 -10 4 -15 -4 -5 -1 -9 4 -9 6 0 11 -7 11 -15 0 -8 -7
-15 -16 -15 -8 0 -13 -4 -9 -9 3 -5 -5 -17 -17 -25 -12 -9 -17 -16 -10 -16 6
0 12 -7 12 -16 0 -9 -5 -12 -12 -8 -8 5 -7 0 2 -11 8 -10 10 -16 3 -12 -6 4
-15 3 -18 -3 -4 -6 -1 -9 6 -8 13 3 32 -69 22 -85 -2 -4 -1 -7 4 -6 21 4 33
-2 33 -16 0 -14 12 -19 33 -16 4 0 7 -6 7 -15 0 -10 6 -14 15 -10 8 3 15 1 15
-4 0 -6 7 -10 16 -10 8 0 13 -4 10 -8 -2 -4 9 -9 25 -10 34 -3 37 7 9 31 -11
9 -20 25 -20 36 0 12 -6 18 -17 17 -15 -1 -18 8 -19 57 0 46 3 57 14 55 9 -2
16 -11 18 -21 5 -36 42 -48 38 -13 -1 11 -3 24 -3 29 -1 4 -8 7 -16 7 -16 0
-20 27 -7 47 4 7 18 11 30 8 12 -2 25 1 28 7 4 7 2 8 -4 4 -7 -4 -12 -3 -12 3
0 5 9 13 20 16 11 4 18 11 15 16 -3 5 2 6 11 2 10 -4 15 -2 11 3 -3 6 3 11 14
11 12 1 19 -3 16 -10 -2 -7 -9 -12 -15 -12 -17 0 -17 -14 -2 -36 16 -22 30
-16 30 14 1 22 1 22 15 3 12 -16 15 -17 15 -4 0 8 8 22 17 29 14 12 16 12 8 0
-5 -10 -4 -12 3 -7 7 4 12 16 12 28 0 11 8 22 20 25 14 4 20 14 20 35 0 17 4
27 10 23 6 -4 7 -12 4 -18 -5 -8 -4 -9 4 -2 6 6 12 32 14 60 2 38 0 50 -11 50
-8 0 -16 11 -18 25 -4 24 -21 42 -34 34 -4 -2 -6 4 -5 12 0 9 -7 18 -17 20
-20 3 -38 -31 -30 -56 4 -12 3 -13 -5 -1 -8 11 -12 10 -21 -6 -5 -11 -7 -23
-4 -27 6 -5 -12 -10 -29 -7 -5 0 -8 -6 -8 -14 0 -20 -36 -20 -44 0 -5 14 5 20
27 16 5 -1 11 8 14 19 3 12 12 19 22 18 11 -2 17 6 19 25 2 15 7 25 12 22 5
-3 12 -1 15 5 4 6 1 9 -6 8 -6 -2 -14 3 -16 10 -3 7 -1 11 4 10 4 -2 10 2 11
7 2 6 8 18 13 28 6 10 6 17 1 17 -5 0 -8 11 -7 25 2 14 -2 28 -7 32 -6 3 -8 1
-4 -5 3 -6 2 -14 -4 -17 -6 -4 -10 -3 -9 2 1 4 1 20 0 35 -1 20 -5 26 -17 21
-10 -4 -17 2 -21 16 -3 14 -11 20 -20 17 -8 -3 -11 -1 -8 4 3 5 -6 12 -20 16
-14 3 -25 12 -25 20 0 10 -12 14 -40 14 -22 0 -40 -5 -40 -11z m38 -232 c2
-12 -3 -17 -17 -17 -12 0 -21 -6 -21 -15 0 -8 -3 -14 -7 -13 -16 3 -43 -15
-36 -25 3 -5 1 -7 -4 -4 -13 8 -36 -17 -25 -28 4 -4 -2 -6 -12 -4 -26 5 -33
29 -8 29 13 0 22 9 27 28 4 15 10 21 12 15 3 -7 9 -13 14 -13 5 0 4 10 -2 23
-11 19 -10 20 2 10 17 -13 45 -1 35 15 -6 11 12 22 29 18 6 -2 11 -10 13 -19z
m78 -155 c-13 -12 -46 -12 -46 1 0 22 11 27 32 16 11 -6 17 -13 14 -17z m-50
-34 c-6 -4 -17 -2 -24 5 -9 7 -10 13 -3 15 6 2 11 11 11 20 0 12 4 9 13 -8 9
-17 10 -27 3 -32z m-30 -13 c2 -10 -7 -15 -26 -15 -16 0 -32 -4 -35 -10 -3 -6
1 -7 9 -4 10 4 16 1 16 -7 0 -7 -3 -9 -6 -6 -10 9 -46 -12 -39 -24 4 -5 -1 -9
-9 -9 -11 0 -16 9 -16 30 0 22 4 28 15 24 8 -4 17 1 21 10 3 9 15 16 25 16 11
0 19 7 19 17 0 13 3 14 12 5 6 -6 13 -19 14 -27z m176 -48 c-7 -8 -9 -17 -5
-20 3 -4 1 -7 -5 -7 -6 0 -10 9 -9 19 0 11 5 17 9 15 4 -3 8 0 8 7 0 7 3 9 6
6 4 -4 2 -13 -4 -20z"/>
<path d="M666 691 c-4 -5 1 -8 9 -7 21 3 31 16 12 16 -9 0 -18 -4 -21 -9z"/>
<path d="M553 353 c0 -29 17 -45 34 -32 11 10 10 15 -6 30 -25 23 -28 23 -28
2z"/>
<path d="M495 330 c-4 -6 -1 -9 7 -8 7 2 12 -2 11 -7 -1 -6 8 -22 19 -35 11
-14 17 -19 13 -12 -4 7 -2 19 4 26 8 10 7 17 -4 26 -8 7 -15 9 -15 5 0 -4 -6
-2 -14 4 -10 8 -16 9 -21 1z"/>
<path d="M453 195 c0 -7 6 -11 14 -8 7 3 13 6 13 8 0 2 -6 5 -13 8 -8 3 -14
-1 -14 -8z"/>
</g>
</svg>
